<?xml version="1.0" standalone="no"?><!DOCTYPE svg PUBLIC "-//W3C//DTD SVG 1.1//EN" "http://www.w3.org/Graphics/SVG/1.1/DTD/svg11.dtd"><svg t="1743687910215" class="icon" viewBox="0 0 1024 1024" version="1.1" xmlns="http://www.w3.org/2000/svg" p-id="2184" data-spm-anchor-id="a313x.search_index.0.i3.641c3a81DYnZ99" xmlns:xlink="http://www.w3.org/1999/xlink" width="200" height="200"><path d="M669.171 484.543c15.202 22.159 10.376 51.888-10.779 66.402-21.156 14.514-50.63 8.317-65.832-13.842l-81.105-118.216c-15.202-22.159-10.376-51.888 10.779-66.402 21.156-14.514 50.63-8.317 65.832 13.842l81.105 118.216z" fill="#F2D8AA" p-id="2185"></path><path d="M632.947 573.792c-20.919 0-40.641-10.543-52.756-28.201l-81.105-118.217c-19.857-28.943-13.28-68.086 14.662-87.257 9.991-6.854 21.724-10.478 33.931-10.478 20.919 0 40.642 10.543 52.757 28.202l81.104 118.216c9.545 13.913 13.339 30.589 10.683 46.957-2.699 16.627-11.7 30.939-25.346 40.3-9.99 6.855-21.723 10.478-33.93 10.478z m-85.268-214.153c-6.121 0-11.985 1.803-16.958 5.215-14.302 9.813-17.396 30.245-6.896 45.548l81.104 118.216c6.519 9.501 16.993 15.174 28.019 15.174 6.121 0 11.985-1.804 16.958-5.216 6.82-4.679 11.332-11.912 12.704-20.368 1.415-8.716-0.647-17.658-5.808-25.178l-81.104-118.217c-6.519-9.501-16.993-15.174-28.019-15.174z" fill="#2B2B2B" p-id="2186"></path><path d="M591.059 535.104c15.202 22.159 44.677 28.356 65.832 13.841 21.156-14.514 25.982-44.244 10.779-66.402l-76.611 52.561z" fill="#1C1C1C" p-id="2187"></path><path d="M631.452 571.792h-0.006c-20.92-0.002-40.642-10.545-52.756-28.201l-8.485-12.369 101.349-69.533 8.486 12.369c19.856 28.943 13.279 68.087-14.662 87.258-9.991 6.853-21.723 10.476-33.926 10.476z m-16.831-34.662c5.093 3.012 10.88 4.662 16.828 4.662h0.003c6.119 0 11.98-1.803 16.954-5.215 10.15-6.964 14.655-19.278 12.66-31.312l-46.445 31.865z" fill="#2B2B2B" p-id="2188"></path><path d="M469.861 216.38m-105.88 0a105.88 105.88 0 1 0 211.76 0 105.88 105.88 0 1 0-211.76 0Z" fill="#F2D8AA" p-id="2189"></path><path d="M469.959 336.023c-40.432 0-77.826-20.141-100.028-53.875-17.567-26.692-23.689-58.628-17.237-89.924 6.452-31.296 24.706-58.207 51.397-75.774 19.596-12.896 42.303-19.713 65.672-19.713 40.432 0 77.827 20.14 100.03 53.875 36.265 55.101 20.939 129.433-34.162 165.698-19.596 12.897-42.304 19.713-65.672 19.713z m-0.196-211.784c-17.978 0-35.459 5.251-50.553 15.184-20.555 13.528-34.613 34.253-39.582 58.354-4.969 24.102-0.255 48.696 13.275 69.252 17.098 25.981 45.905 41.492 77.055 41.492 17.978 0 35.459-5.25 50.553-15.184 42.434-27.928 54.236-85.172 26.308-127.607-17.099-25.98-45.906-41.491-77.056-41.491z" fill="#2B2B2B" p-id="2190"></path><path d="M534.392 789.939c-23.496 0-47.436-9.472-72.646-28.652-60.988-46.398-89.632-32.363-122.801-16.111-29.616 14.51-63.183 30.958-115.039 3.099-36.443-19.579-67.76-23.367-93.081-11.257-18.846 9.013-27.745 24.088-27.833 24.239l0.055-0.098-26.18-14.648c0.507-0.906 12.718-22.337 39.232-35.683 23.904-12.032 64.477-19.888 122.005 11.019 38.289 20.571 60.068 9.898 87.641-3.611 17.793-8.718 37.955-18.597 63.096-18.597h0.175c27.82 0.051 57.551 12.406 90.894 37.773 32.972 25.084 54.286 24.032 67.45 21.058 19.085-4.313 35.974-17.364 53.854-31.183 18.247-14.102 37.115-28.684 59.284-33.599 26.052-5.775 51.567 2.801 78.003 26.223 50.436 44.687 79.707 30.649 110.699 15.787 13.334-6.395 27.122-13.007 42.142-14.473 17.976-1.757 34.485 4.099 50.445 17.896 6.267 5.418 6.955 14.891 1.537 21.158-5.418 6.266-14.891 6.954-21.158 1.537-19.831-17.147-33.465-11.791-59.993 0.931-16.649 7.984-36.407 17.457-60.28 17.458-23.462 0.002-50.897-9.144-83.286-37.84-40.926-36.261-64.048-18.39-99.048 8.658-19.677 15.207-40.023 30.932-65.586 36.707a88.476 88.476 0 0 1-19.581 2.209zM534.496 917.939c-23.496 0-47.436-9.472-72.646-28.652-60.988-46.397-89.632-32.363-122.8-16.112-29.616 14.513-63.183 30.958-115.04 3.099-36.443-19.579-67.76-23.366-93.081-11.256-18.846 9.013-27.745 24.088-27.833 24.239l0.055-0.098-26.18-14.649c0.507-0.905 12.718-22.336 39.231-35.682 23.905-12.033 64.476-19.889 122.006 11.018 38.289 20.571 60.067 9.898 87.642-3.61 17.834-8.738 38.083-18.627 63.271-18.597 27.819 0.051 57.551 12.406 90.894 37.773 32.974 25.086 54.29 24.033 67.45 21.058 19.084-4.313 35.974-17.364 53.854-31.183 18.247-14.102 37.115-28.684 59.284-33.599 26.058-5.777 51.569 2.802 78.003 26.223 50.438 44.688 79.708 30.649 110.698 15.787 13.334-6.395 27.123-13.007 42.142-14.473 17.987-1.76 34.486 4.099 50.446 17.896 6.267 5.418 6.955 14.891 1.537 21.157-5.418 6.268-14.892 6.955-21.157 1.538-19.833-17.147-33.466-11.79-59.996 0.931-16.648 7.984-36.406 17.457-60.278 17.458-23.462 0.002-50.897-9.144-83.286-37.84-40.923-36.26-64.048-18.39-99.048 8.658-19.677 15.207-40.023 30.932-65.586 36.707a88.55 88.55 0 0 1-19.582 2.209z" fill="#3F80EA" p-id="2191"></path><path d="M314.561 601.839s25.499-22.499 82.496 3c38.943 17.422 395.98 203.99 418.479 223.489 22.499 19.499 71.996 85.496-10.499 94.495s-493.673-225.976-506.04-254.317c-12-27.5 4.5-59 15.564-66.667z" fill="#F7B141" p-id="2192"></path><path d="M800.048 938.075c-58.055 0-205.272-74.33-287.861-118.638-53.936-28.937-108.891-60.537-150.776-86.701-69.769-43.581-73.928-53.111-76.162-58.231-15.355-35.189 4.801-73.38 20.242-84.621 3.64-2.87 17.366-12.211 41.796-12.211 17.104 0 35.909 4.533 55.895 13.474 36.396 16.282 397.103 204.115 422.178 225.847 14.292 12.387 49.089 51.886 38.603 85.461-6.229 19.942-25.507 31.813-57.299 35.28-2.071 0.226-4.297 0.34-6.616 0.34zM312.397 661.679c3.716 4.435 22.438 19.377 71.402 49.649 42.66 26.375 95.408 56.513 148.527 84.86 131.281 70.06 231.364 111.887 267.722 111.887 1.236 0 2.367-0.055 3.361-0.163 10.602-1.157 28.845-4.565 31.917-14.401 4.291-13.741-14.356-40.623-29.615-53.848-20.236-17.402-371.339-201.698-414.78-221.132-16.106-7.205-30.79-10.858-43.644-10.858-14.462 0-21.696 4.665-22.945 5.555l-0.797 0.791-0.441 0.149c-5.742 3.979-18.743 27.629-10.707 47.511z" fill="#2B2B2B" p-id="2193"></path><path d="M575.993 788.51c-6.384 0.001-12.301-4.106-14.311-10.52-1.067-3.408-26.27-83.975-37.257-128.923-5.957-24.369 6.253-50.745 36.289-78.393 20.317-18.701 41.774-31.404 42.679-31.936 7.137-4.203 16.334-1.82 20.534 5.321 4.2 7.137 1.821 16.325-5.312 20.529-23.938 14.131-71.336 51.632-65.048 77.354 10.762 44.025 36.484 126.252 36.743 127.077 2.476 7.906-1.925 16.322-9.83 18.799a14.936 14.936 0 0 1-4.487 0.692zM674.979 840.508c-7.374 0-13.803-5.439-14.84-12.949-0.21-1.52-21.049-152.323-25.982-185.87-5.973-40.62 16.483-101.969 17.442-104.561 2.876-7.768 11.501-11.735 19.273-8.863 7.77 2.875 11.737 11.504 8.863 19.273-5.79 15.689-19.927 62.386-15.897 89.785 4.952 33.676 25.808 184.609 26.018 186.13 1.134 8.206-4.6 15.777-12.806 16.911-0.696 0.097-1.388 0.144-2.071 0.144zM321.494 516.756c-3.429 0-6.856-0.09-10.285-0.271-8.272-0.436-14.626-7.495-14.19-15.768 0.435-8.272 7.493-14.61 15.768-14.191 104.575 5.513 172.931-88.215 173.609-89.162 4.822-6.737 14.193-8.288 20.928-3.466 6.736 4.822 8.288 14.192 3.466 20.928-0.794 1.111-19.857 27.492-53.672 53.17-42.164 32.017-88.844 48.76-135.624 48.76zM824.002 467.506a14.965 14.965 0 0 1-11.184-4.998c-5.613-6.274-29.466-24.634-129.47-59.544-56.182-19.612-108.88-34.799-109.405-34.95-7.962-2.289-12.562-10.598-10.272-18.56 2.288-7.962 10.595-12.562 18.56-10.273 0.534 0.154 54.04 15.573 111.005 35.458 118.109 41.23 136.046 61.277 141.94 67.864 5.523 6.174 4.997 15.657-1.177 21.181a14.94 14.94 0 0 1-9.997 3.822z" fill="#2B2B2B" p-id="2194"></path></svg>